<svg width="21" height="20" viewBox="0 0 21 20" fill="none" xmlns="http://www.w3.org/2000/svg">
<g id="096-twitter" clip-path="url(#clip0_1_662)">
<path id="Vector" d="M18.9186 5.9275C19.732 5.35 20.4161 4.62917 20.9736 3.79917V3.79833C20.2295 4.12417 19.4378 4.34083 18.6111 4.44583C19.4611 3.93833 20.1103 3.14083 20.4153 2.18C19.6228 2.6525 18.7478 2.98583 17.8153 3.1725C17.0628 2.37083 15.9903 1.875 14.8203 1.875C12.5503 1.875 10.7228 3.7175 10.7228 5.97583C10.7228 6.30083 10.7503 6.61333 10.8178 6.91083C7.40947 6.74417 4.3928 5.11083 2.36613 2.62167C2.0128 3.23583 1.80447 3.93833 1.80447 4.69417C1.80447 6.11417 2.5353 7.3725 3.62613 8.10167C2.96697 8.08917 2.32113 7.8975 1.77363 7.59667V7.64167C1.77363 9.63417 3.19447 11.2892 5.05863 11.6708C4.72447 11.7625 4.36113 11.8058 3.98363 11.8058C3.72113 11.8058 3.45613 11.7908 3.2078 11.7358C3.73863 13.3592 5.24697 14.5533 7.03863 14.5925C5.64363 15.6833 3.87197 16.3408 1.95447 16.3408C1.61863 16.3408 1.29613 16.3258 0.973633 16.285C2.7903 17.4558 4.94197 18.125 7.26363 18.125C14.4995 18.125 19.2153 12.0883 18.9186 5.9275Z" fill="#DF6951"/>
</g>
<defs>
<clipPath id="clip0_1_662">
<rect width="20" height="20" fill="white" transform="translate(0.973633)"/>
</clipPath>
</defs>
</svg>
